<?xml version="1.0" encoding="UTF-8" standalone="no"?>
<svg
   xmlns:dc="http://purl.org/dc/elements/1.1/"
   xmlns:cc="http://creativecommons.org/ns#"
   xmlns:rdf="http://www.w3.org/1999/02/22-rdf-syntax-ns#"
   xmlns:svg="http://www.w3.org/2000/svg"
   xmlns="http://www.w3.org/2000/svg"
   xmlns:sodipodi="http://sodipodi.sourceforge.net/DTD/sodipodi-0.dtd"
   xmlns:inkscape="http://www.inkscape.org/namespaces/inkscape"
   viewBox="0 0 512 512"
   id="svg2"
   version="1.1"
   inkscape:version="0.92.1 r15371"
   width="100%"
   height="100%"
   sodipodi:docname="cycle.svg">
  <metadata
     id="metadata10">
    <rdf:RDF>
      <cc:Work
         rdf:about="">
        <dc:format>image/svg+xml</dc:format>
        <dc:type
           rdf:resource="http://purl.org/dc/dcmitype/StillImage" />
      </cc:Work>
    </rdf:RDF>
  </metadata>
  <defs
     id="defs8" />
  <sodipodi:namedview
     pagecolor="#ffffff"
     bordercolor="#666666"
     borderopacity="1"
     objecttolerance="10"
     gridtolerance="10"
     guidetolerance="10"
     inkscape:pageopacity="0"
     inkscape:pageshadow="2"
     inkscape:window-width="1920"
     inkscape:window-height="1017"
     id="namedview6"
     showgrid="false"
     fit-margin-top="0"
     fit-margin-left="0"
     fit-margin-right="0"
     fit-margin-bottom="0"
     inkscape:zoom="0.23046875"
     inkscape:cx="-1473.0843"
     inkscape:cy="367.71852"
     inkscape:window-x="-8"
     inkscape:window-y="-8"
     inkscape:window-maximized="1"
     inkscape:current-layer="svg2" />
  <path
     d="M 490.66556,234.66669 H 362.66594 q -8.83348,0 -15.08346,-6.24998 -6.24998,-6.24999 -6.24998,-15.08346 0,-8.83347 6.24998,-15.08346 6.24998,-6.24998 15.08346,-6.24998 h 71.99979 L 376.6659,135.33348 Q 351.99947,110.50005 320.16606,97.83359 289.66615,85.33362 255.99975,85.33362 q -33.6664,0 -64.16631,12.49997 -16.66645,6.83348 -31.24991,16.74995 -14.58346,9.91647 -24.83343,20.33344 -10.24997,10.41697 -18.66644,22.33343 -8.41648,11.91647 -13.49996,21.91644 -5.083489,9.99997 -8.583478,19.99994 -2.999992,8.33348 -10.999968,12.08347 -7.999977,3.74999 -16.166453,0.91649 -8.333475,-2.99999 -12.083464,-10.91646 -3.749989,-7.91648 -0.916498,-16.08346 6.99998,-21.33343 20.333441,-42.33337 13.333461,-20.99994 29.99991,-37.66639 30.66641,-30.66641 70.4998,-46.83337 38.66638,-15.66645 80.33326,-15.66645 41.49988,0 80.33326,15.66645 39.83339,16.16646 70.4998,46.83337 l 62.49982,61.16632 V 85.33362 q 0,-8.83347 6.24998,-15.08345 6.24998,-6.24998 15.08345,-6.24998 8.83348,0 15.08346,6.24998 Q 512,76.50015 512,85.33362 v 127.99963 q 0,8.83347 -6.24998,15.08346 -6.24998,6.24998 -15.08346,6.24998 z M 255.99975,469.333 q -41.49988,0 -80.33326,-15.66645 -39.83339,-16.16646 -70.4998,-46.83337 l -0.3335,-0.3335 -62.166315,-60.83332 v 80.99977 q 0,8.83347 -6.249982,15.08345 -6.249981,6.24998 -15.083456,6.24998 -8.833474,0 -15.0834553,-6.24998 Q 0,435.4996 0,426.66613 V 298.6665 q 0,-8.83347 6.2499817,-15.08346 6.2499813,-6.24998 15.0834553,-6.24998 H 149.33306 q 8.83348,0 15.08346,6.24998 6.24998,6.24999 6.24998,15.08346 0,8.83347 -6.24998,15.08346 -6.24998,6.24998 -15.08346,6.24998 H 77.333273 l 57.999827,56.66633 q 24.33343,24.33343 55.41634,37.16639 31.08291,12.83297 65.24981,12.83347 33.6664,0 64.16631,-12.49997 31.83341,-12.66646 56.49984,-37.49989 9.99997,-8.83347 21.91643,-26.91642 11.91647,-18.08295 18.41645,-36.91639 2.99999,-8.33348 10.99997,-12.08347 7.99997,-3.74999 16.16645,-0.91649 8.33347,2.99999 12.08346,10.91646 3.74999,7.91648 0.9165,16.08346 -6.99998,21.33343 -20.33344,42.33337 -13.33346,20.99994 -29.99991,37.66639 -30.66641,30.66641 -70.4998,46.83337 -38.83338,15.66645 -80.33326,15.66645 z"
     id="path4"
     inkscape:connector-curvature="0"
     style="stroke-width:0.13636304" />
</svg>
