<?xml version="1.0" encoding="UTF-8" standalone="no"?>
<svg
   xmlns:dc="http://purl.org/dc/elements/1.1/"
   xmlns:cc="http://creativecommons.org/ns#"
   xmlns:rdf="http://www.w3.org/1999/02/22-rdf-syntax-ns#"
   xmlns:svg="http://www.w3.org/2000/svg"
   xmlns="http://www.w3.org/2000/svg"
   xmlns:sodipodi="http://sodipodi.sourceforge.net/DTD/sodipodi-0.dtd"
   xmlns:inkscape="http://www.inkscape.org/namespaces/inkscape"
   viewBox="0 0 512 512"
   id="svg2"
   version="1.1"
   inkscape:version="0.92.1 r15371"
   width="100%"
   height="100%"
   sodipodi:docname="document.svg">
  <metadata
     id="metadata10">
    <rdf:RDF>
      <cc:Work
         rdf:about="">
        <dc:format>image/svg+xml</dc:format>
        <dc:type
           rdf:resource="http://purl.org/dc/dcmitype/StillImage" />
      </cc:Work>
    </rdf:RDF>
  </metadata>
  <defs
     id="defs8" />
  <sodipodi:namedview
     pagecolor="#ffffff"
     bordercolor="#666666"
     borderopacity="1"
     objecttolerance="10"
     gridtolerance="10"
     guidetolerance="10"
     inkscape:pageopacity="0"
     inkscape:pageshadow="2"
     inkscape:window-width="1920"
     inkscape:window-height="1017"
     id="namedview6"
     showgrid="false"
     fit-margin-top="0"
     fit-margin-left="0"
     fit-margin-right="0"
     fit-margin-bottom="0"
     inkscape:zoom="0.23046875"
     inkscape:cx="-1473.0843"
     inkscape:cy="367.71852"
     inkscape:window-x="-8"
     inkscape:window-y="-8"
     inkscape:window-maximized="1"
     inkscape:current-layer="svg2" />
  <path
     d="m 432,64 h -32 v 32 h 16 V 352 H 288 V 480 H 96 V 96 h 16 V 64 H 80 c -8.801,0 -16,7.2 -16,16 v 416 c 0,8.8 7.199,16 16,16 H 332 L 448,396 V 80 c 0,-8.8 -7.2,-16 -16,-16 z M 320,480 v -96 h 96 z M 384,64 H 320 V 32 C 320,14.4 305.6,0 288,0 h -64 c -17.602,0 -32,14.4 -32,32 v 32 h -64 v 64 h 256 z m -96,0 H 224 V 32.057 c 0.017,-0.019 0.036,-0.039 0.057,-0.057 h 63.884 c 0.021,0.018 0.041,0.038 0.059,0.057 z"
     id="path4"
     inkscape:connector-curvature="0"
     style="stroke-width:0.13636345" />
</svg>
