<?xml version="1.0" encoding="UTF-8" standalone="no"?>
<svg
   xmlns:dc="http://purl.org/dc/elements/1.1/"
   xmlns:cc="http://creativecommons.org/ns#"
   xmlns:rdf="http://www.w3.org/1999/02/22-rdf-syntax-ns#"
   xmlns:svg="http://www.w3.org/2000/svg"
   xmlns="http://www.w3.org/2000/svg"
   xmlns:sodipodi="http://sodipodi.sourceforge.net/DTD/sodipodi-0.dtd"
   xmlns:inkscape="http://www.inkscape.org/namespaces/inkscape"
   viewBox="0 0 512 512"
   id="svg2"
   version="1.1"
   inkscape:version="0.92.1 r15371"
   width="100%"
   height="100%"
   sodipodi:docname="good.svg">
  <metadata
     id="metadata10">
    <rdf:RDF>
      <cc:Work
         rdf:about="">
        <dc:format>image/svg+xml</dc:format>
        <dc:type
           rdf:resource="http://purl.org/dc/dcmitype/StillImage" />
      </cc:Work>
    </rdf:RDF>
  </metadata>
  <defs
     id="defs8" />
  <sodipodi:namedview
     pagecolor="#ffffff"
     bordercolor="#666666"
     borderopacity="1"
     objecttolerance="10"
     gridtolerance="10"
     guidetolerance="10"
     inkscape:pageopacity="0"
     inkscape:pageshadow="2"
     inkscape:window-width="1920"
     inkscape:window-height="1017"
     id="namedview6"
     showgrid="false"
     fit-margin-top="0"
     fit-margin-left="0"
     fit-margin-right="0"
     fit-margin-bottom="0"
     inkscape:zoom="0.23046875"
     inkscape:cx="-811.38935"
     inkscape:cy="367.71852"
     inkscape:window-x="-8"
     inkscape:window-y="-8"
     inkscape:window-maximized="1"
     inkscape:current-layer="svg2" />
  <path
     d="M 0,440.31906 V 235.51928 q 0,-8.31992 6.07992,-14.39984 6.07992,-6.07991 14.39984,-6.07991 h 92.15972 q 8.31992,0 14.39984,6.07991 6.07992,6.07992 6.07992,14.39984 v 204.79978 q 0,8.31991 -6.07992,14.39983 -6.07992,6.07992 -14.39984,6.07992 H 20.47976 q -8.31992,0 -14.39984,-6.07992 Q 0,448.63897 0,440.31906 Z m 40.96007,-40.96007 q 0,8.64024 5.91976,14.55999 5.91976,5.91976 14.56,5.91976 8.31991,0 14.39983,-5.91976 6.07992,-5.91975 6.07992,-14.55999 0,-8.31992 -6.07992,-14.39984 -6.07992,-6.07992 -14.39983,-6.07992 -8.64024,0 -14.56,6.07992 -5.91976,6.07992 -5.91976,14.39984 z m 112.64004,40.96007 v -205.1201 q 0,-8.00016 5.76016,-13.91992 5.76016,-5.91975 13.75976,-6.55983 7.67983,-0.64008 24.32023,-18.87984 16.64039,-18.23975 32.31983,-38.72007 21.75991,-27.83983 32.31983,-38.39974 5.76016,-5.76016 9.91983,-15.36024 4.15968,-9.60008 5.6,-15.51983 1.44032,-5.91976 4.31984,-19.35976 2.24,-12.48015 4.00008,-19.51991 1.76008,-7.03976 6.24008,-16.63984 4.48,-9.60007 10.88024,-15.99975 6.07991,-6.07992 14.39983,-6.07992 14.72016,0 26.40007,3.36 11.67992,3.36 19.20016,8.31992 7.52023,4.95991 12.79991,12.96007 5.27968,8.00016 7.67984,14.39984 2.40016,6.39968 3.83992,15.99975 1.43976,9.60008 1.59992,14.39984 0.16016,4.79976 0.16016,12.48015 0,12.15984 -3.04024,24.32024 -3.04024,12.16039 -6.07992,19.20015 -3.03968,7.03976 -8.79984,17.92 -0.95984,1.92023 -3.19984,5.76015 -2.23999,3.83992 -3.52015,7.03976 -1.28016,3.19984 -2.55976,7.67984 h 88.64014 q 24.95975,0 43.20007,18.23975 18.24031,18.23976 18.23975,43.20007 0,27.52007 -17.60023,47.68006 4.79975,14.08008 4.79975,24.32024 0.95984,24.32023 -13.75975,43.84014 5.43984,17.92 0,37.43991 -4.79976,18.23976 -17.27992,30.07983 2.88008,35.83999 -15.67999,57.92022 -20.47976,24.32024 -63.03975,24.95976 h -41.27983 q -21.11983,0 -46.08014,-4.95992 -24.96032,-4.95992 -38.88023,-9.27976 -13.91992,-4.31984 -38.55991,-12.63976 -39.36015,-13.75975 -50.56014,-14.08007 -8.31992,-0.31976 -14.39984,-6.24008 -6.07992,-5.92032 -6.07992,-14.24023 z"
     id="path4"
     inkscape:connector-curvature="0"
     style="stroke-width:0.27999991" />
</svg>
