<?xml version="1.0" encoding="UTF-8" standalone="no"?>
<svg
   xmlns:dc="http://purl.org/dc/elements/1.1/"
   xmlns:cc="http://creativecommons.org/ns#"
   xmlns:rdf="http://www.w3.org/1999/02/22-rdf-syntax-ns#"
   xmlns:svg="http://www.w3.org/2000/svg"
   xmlns="http://www.w3.org/2000/svg"
   xmlns:sodipodi="http://sodipodi.sourceforge.net/DTD/sodipodi-0.dtd"
   xmlns:inkscape="http://www.inkscape.org/namespaces/inkscape"
   viewBox="0 0 512 512"
   id="svg2"
   version="1.1"
   inkscape:version="0.92.1 r15371"
   width="100%"
   height="100%"
   sodipodi:docname="lifebuoy.svg">
  <metadata
     id="metadata10">
    <rdf:RDF>
      <cc:Work
         rdf:about="">
        <dc:format>image/svg+xml</dc:format>
        <dc:type
           rdf:resource="http://purl.org/dc/dcmitype/StillImage" />
      </cc:Work>
    </rdf:RDF>
  </metadata>
  <defs
     id="defs8" />
  <sodipodi:namedview
     pagecolor="#ffffff"
     bordercolor="#666666"
     borderopacity="1"
     objecttolerance="10"
     gridtolerance="10"
     guidetolerance="10"
     inkscape:pageopacity="0"
     inkscape:pageshadow="2"
     inkscape:window-width="1920"
     inkscape:window-height="1017"
     id="namedview6"
     showgrid="false"
     fit-margin-top="0"
     fit-margin-left="0"
     fit-margin-right="0"
     fit-margin-bottom="0"
     inkscape:zoom="0.23046875"
     inkscape:cx="-1473.0843"
     inkscape:cy="367.71852"
     inkscape:window-x="-8"
     inkscape:window-y="-8"
     inkscape:window-maximized="1"
     inkscape:current-layer="svg2" />
  <path
     d="m 256,512 q 50.18185,0 97.27261,-19.09092 47.09077,-19.09093 83.81843,-55.81804 36.72766,-36.72712 55.81804,-83.81843 Q 511.99945,306.18131 512,256 512.00055,205.81869 492.90908,158.72739 473.81761,111.63608 437.09104,74.90896 400.36447,38.18185 353.27261,19.09092 306.18076,0 256,0 205.81924,0 158.72739,19.09092 111.63553,38.18185 74.90896,74.90896 38.182391,111.63608 19.090923,158.72739 -5.4498444e-4,205.81869 1.5557553e-8,256 5.4501556e-4,306.18131 19.090923,353.27261 38.1813,400.36392 74.90896,437.09104 111.63662,473.81815 158.72739,492.90908 205.81815,512 256,512 Z m -97.09098,-191.81795 -66.5455,66.5455 Q 69.81823,358.54553 58.1815,324.9095 46.54476,291.27348 46.545306,256.00055 46.545851,220.72761 58.1815,187.09159 69.81714,153.45556 92.36352,125.27354 l 66.5455,66.54551 q -19.27256,29.09074 -19.27256,64.18204 0,35.0913 19.27256,64.18205 z m 227.81853,-227.81853 -66.5455,66.5455 Q 291.0913,139.63646 256,139.63646 q -35.0913,0 -64.18205,19.27256 l -66.5455,-66.5455 q 28.18202,-22.54529 61.81805,-34.18202 33.63602,-11.63674 68.90895,-11.63619 35.27294,5.4e-4 68.90896,11.63619 33.63603,11.63564 61.81805,34.18202 z M 256,325.81823 q -28.90911,0 -49.36367,-20.45456 Q 186.18177,284.90911 186.18177,256 q 0,-28.90911 20.45456,-49.36367 20.45456,-20.45456 49.36367,-20.45456 28.90911,0 49.36367,20.45456 20.45456,20.45456 20.45456,49.36367 0,28.90911 -20.45456,49.36367 Q 284.90911,325.81823 256,325.81823 Z m 0,139.63646 q -35.27293,0 -68.90896,-11.63619 -33.63602,-11.63619 -61.81804,-34.18202 l 66.5455,-66.5455 q 29.09075,19.27256 64.18205,19.27256 35.09129,0 64.18204,-19.27256 l 66.5455,66.5455 q -28.18202,22.54529 -61.81804,34.18202 -33.63602,11.63674 -68.90896,11.63619 z m 163.63648,-78.72714 -66.5455,-66.5455 Q 372.36354,291.0913 372.36354,256 q 0,-35.0913 -19.27256,-64.18205 l 66.5455,-66.5455 q 22.54529,28.18202 34.18202,61.81805 11.63674,33.63602 11.63619,68.90895 -5.4e-4,35.27294 -11.63619,68.90896 -11.63564,33.63603 -34.18202,61.81805 z"
     id="path4"
     inkscape:connector-curvature="0"
     style="stroke-width:0.14876023" />
</svg>
