<?xml version="1.0" encoding="UTF-8" standalone="no"?>
<svg
   xmlns:dc="http://purl.org/dc/elements/1.1/"
   xmlns:cc="http://creativecommons.org/ns#"
   xmlns:rdf="http://www.w3.org/1999/02/22-rdf-syntax-ns#"
   xmlns:svg="http://www.w3.org/2000/svg"
   xmlns="http://www.w3.org/2000/svg"
   xmlns:sodipodi="http://sodipodi.sourceforge.net/DTD/sodipodi-0.dtd"
   xmlns:inkscape="http://www.inkscape.org/namespaces/inkscape"
   viewBox="0 0 512 512"
   id="svg2"
   version="1.1"
   inkscape:version="0.92.1 r15371"
   width="100%"
   height="100%"
   sodipodi:docname="mechanic_3.svg">
  <metadata
     id="metadata10">
    <rdf:RDF>
      <cc:Work
         rdf:about="">
        <dc:format>image/svg+xml</dc:format>
        <dc:type
           rdf:resource="http://purl.org/dc/dcmitype/StillImage" />
      </cc:Work>
    </rdf:RDF>
  </metadata>
  <defs
     id="defs8" />
  <sodipodi:namedview
     pagecolor="#ffffff"
     bordercolor="#666666"
     borderopacity="1"
     objecttolerance="10"
     gridtolerance="10"
     guidetolerance="10"
     inkscape:pageopacity="0"
     inkscape:pageshadow="2"
     inkscape:window-width="1920"
     inkscape:window-height="1017"
     id="namedview6"
     showgrid="false"
     fit-margin-top="0"
     fit-margin-left="0"
     fit-margin-right="0"
     fit-margin-bottom="0"
     inkscape:zoom="0.23046875"
     inkscape:cx="-1473.0843"
     inkscape:cy="367.71852"
     inkscape:window-x="-8"
     inkscape:window-y="-8"
     inkscape:window-maximized="1"
     inkscape:current-layer="svg2" />
  <path
     d="m 181.861,361.026 20.649,-28.908 -22.627,-22.628 -28.909,20.648 c -5.361,-2.997 -11.102,-5.387 -17.133,-7.096 L 128,288 H 96 l -5.84,35.043 c -6.031,1.709 -11.772,4.099 -17.133,7.096 L 44.118,309.49 21.49,332.118 42.139,361.026 c -2.997,5.36 -5.387,11.103 -7.096,17.133 L 0,384 v 32 l 35.043,5.841 c 1.709,6.03 4.099,11.772 7.096,17.133 L 21.49,467.882 44.117,490.51 73.026,469.862 c 5.361,2.997 11.102,5.387 17.133,7.096 L 96,512 h 32 l 5.84,-35.043 c 6.031,-1.709 11.772,-4.099 17.133,-7.096 l 28.909,20.648 22.627,-22.628 -20.649,-28.908 c 2.997,-5.36 5.387,-11.103 7.096,-17.133 L 224,416 v -32 l -35.043,-5.841 c -1.709,-6.03 -4.099,-11.772 -7.096,-17.133 z M 112,432 c -17.674,0 -32,-14.327 -32,-32 0,-17.673 14.326,-32 32,-32 17.674,0 32,14.327 32,32 0,17.673 -14.326,32 -32,32 z M 512,192 v -32 l -33.691,-6.125 c -0.621,-4.023 -1.416,-7.989 -2.362,-11.895 L 504.726,123.43 492.48,93.866 459.008,101.1 c -2.107,-3.455 -4.363,-6.81 -6.746,-10.065 L 471.765,62.864 449.137,40.237 420.966,59.74 c -3.256,-2.383 -6.61,-4.638 -10.065,-6.747 l 7.234,-33.472 -29.564,-12.247 -18.55,28.779 c -3.906,-0.946 -7.872,-1.741 -11.895,-2.362 L 352,0 h -32 l -6.126,33.691 c -4.023,0.621 -7.988,1.416 -11.895,2.362 L 283.43,7.274 253.866,19.52 261.1,52.992 c -3.455,2.108 -6.81,4.364 -10.065,6.747 L 222.864,40.236 200.237,62.863 219.74,91.034 c -2.383,3.255 -4.639,6.61 -6.747,10.065 l -33.472,-7.234 -12.246,29.564 28.779,18.55 c -0.946,3.906 -1.741,7.871 -2.362,11.895 L 160,160 v 32 l 33.691,6.125 c 0.621,4.023 1.416,7.989 2.362,11.895 l -28.779,18.55 12.246,29.564 33.472,-7.234 c 2.108,3.455 4.364,6.809 6.747,10.065 l -19.503,28.171 22.627,22.628 28.171,-19.503 c 3.255,2.383 6.61,4.638 10.065,6.746 l -7.234,33.472 29.564,12.246 18.551,-28.779 c 3.905,0.946 7.871,1.741 11.894,2.362 L 320,352 h 32 l 6.126,-33.691 c 4.022,-0.621 7.988,-1.416 11.895,-2.362 l 18.55,28.779 29.564,-12.246 -7.234,-33.472 c 3.455,-2.108 6.81,-4.363 10.065,-6.746 l 28.171,19.503 22.628,-22.628 -19.503,-28.171 c 2.383,-3.256 4.638,-6.61 6.746,-10.065 l 33.472,7.234 12.246,-29.565 -28.779,-18.55 c 0.946,-3.906 1.741,-7.871 2.362,-11.895 z m -176,53.6 c -38.439,0 -69.6,-31.161 -69.6,-69.6 0,-38.439 31.16,-69.6 69.6,-69.6 38.44,0 69.6,31.161 69.6,69.6 0,38.439 -31.16,69.6 -69.6,69.6 z"
     id="path4"
     inkscape:connector-curvature="0"
     style="stroke-width:0.13636345" />
</svg>
