<?xml version="1.0" encoding="UTF-8" standalone="no"?>
<svg
   xmlns:dc="http://purl.org/dc/elements/1.1/"
   xmlns:cc="http://creativecommons.org/ns#"
   xmlns:rdf="http://www.w3.org/1999/02/22-rdf-syntax-ns#"
   xmlns:svg="http://www.w3.org/2000/svg"
   xmlns="http://www.w3.org/2000/svg"
   xmlns:sodipodi="http://sodipodi.sourceforge.net/DTD/sodipodi-0.dtd"
   xmlns:inkscape="http://www.inkscape.org/namespaces/inkscape"
   viewBox="0 0 512 512"
   id="svg2"
   version="1.1"
   inkscape:version="0.92.1 r15371"
   width="100%"
   height="100%"
   sodipodi:docname="mechanic_2.svg">
  <metadata
     id="metadata10">
    <rdf:RDF>
      <cc:Work
         rdf:about="">
        <dc:format>image/svg+xml</dc:format>
        <dc:type
           rdf:resource="http://purl.org/dc/dcmitype/StillImage" />
      </cc:Work>
    </rdf:RDF>
  </metadata>
  <defs
     id="defs8" />
  <sodipodi:namedview
     pagecolor="#ffffff"
     bordercolor="#666666"
     borderopacity="1"
     objecttolerance="10"
     gridtolerance="10"
     guidetolerance="10"
     inkscape:pageopacity="0"
     inkscape:pageshadow="2"
     inkscape:window-width="1920"
     inkscape:window-height="1017"
     id="namedview6"
     showgrid="false"
     fit-margin-top="0"
     fit-margin-left="0"
     fit-margin-right="0"
     fit-margin-bottom="0"
     inkscape:zoom="0.23046875"
     inkscape:cx="-1473.0843"
     inkscape:cy="367.71852"
     inkscape:window-x="-8"
     inkscape:window-y="-8"
     inkscape:window-maximized="1"
     inkscape:current-layer="svg2" />
  <path
     d="m 512,302.5457 v -93.0909 l -57.08794,-19.01399 c -3.258,-9.86749 -7.4475,-19.22348 -12.05549,-28.39247 L 469.92254,107.89289 404.08411,42.07746 349.88216,69.18993 C 340.75917,64.60544 331.40368,60.41594 321.58269,57.18144 L 302.5457,5e-4 h -93.0909 l -19.06049,57.18094 c -9.82099,3.235 -19.17648,7.4005 -28.27647,12.00849 l -54.22545,-27.11247 -65.838431,65.81543 27.089473,54.15545 c -4.607995,9.16949 -8.796991,18.52498 -12.055488,28.39247 L 0,209.4548 v 93.0909 l 57.087944,19.01399 c 3.257997,9.86749 7.447493,19.22348 12.055488,28.39247 l -27.065973,54.15545 65.838431,65.81543 54.22545,-27.11247 c 9.12299,4.58449 18.45548,8.77399 28.27647,12.00849 L 209.4548,512 h 93.0909 l 19.03699,-57.18094 c 9.82099,-3.235 19.17648,-7.4005 28.29947,-12.00849 l 54.20195,27.11247 65.83843,-65.81543 -27.06597,-54.15545 c 4.58449,-9.16949 8.79699,-18.52498 12.05549,-28.39247 z m -95.27841,-22.73747 c -4.02599,27.06597 -14.77798,51.87495 -30.34747,72.79693 l 25.92598,43.26395 -16.43049,16.47699 -43.28745,-25.97248 c -20.94548,15.47649 -45.68446,26.13548 -72.72743,30.13797 l -12.21799,48.94246 H 244.36426 L 232.12277,416.48809 C 205.1033,412.5086 180.36432,401.84961 159.41884,386.37312 L 116.13139,412.3456 99.677403,395.89161 125.62638,352.62766 C 110.03389,331.68218 99.304903,306.8967 95.278907,279.80723 L 46.545955,267.63574 V 244.36326 L 95.278907,232.19177 C 99.281903,205.1258 110.03389,180.31682 125.60338,159.39484 L 99.654403,116.13089 116.10839,99.6769 159.39584,125.64938 C 180.31782,110.17289 205.0803,99.5139 232.09977,95.51141 l 12.26449,-48.96596 h 23.27248 l 12.21799,48.96596 c 27.04297,4.00299 51.78195,14.66198 72.72743,30.13797 l 43.26395,-25.97248 16.45399,16.45399 -25.92598,43.26395 c 15.56949,20.92198 26.32148,45.73096 30.34747,72.79693 l 48.73296,12.17149 v 23.27248 l -48.73296,12.17149 z M 256.00025,186.18232 c -38.56296,0 -69.81793,31.25547 -69.81793,69.81793 0,38.56246 31.25547,69.81793 69.81793,69.81793 38.53946,0 69.81793,-31.25547 69.81793,-69.81793 0,-38.56246 -31.27847,-69.81793 -69.81793,-69.81793 z m 0,93.09041 c -12.84649,0 -23.27248,-10.40299 -23.27248,-23.27248 0,-12.86949 10.42599,-23.27248 23.27248,-23.27248 12.86999,0 23.27248,10.40299 23.27248,23.27248 0,12.86949 -10.40299,23.27248 -23.27248,23.27248 z"
     id="path4"
     inkscape:connector-curvature="0"
     style="stroke-width:0.13636331" />
</svg>
