<?xml version="1.0" encoding="UTF-8" standalone="no"?>
<svg
   xmlns:dc="http://purl.org/dc/elements/1.1/"
   xmlns:cc="http://creativecommons.org/ns#"
   xmlns:rdf="http://www.w3.org/1999/02/22-rdf-syntax-ns#"
   xmlns:svg="http://www.w3.org/2000/svg"
   xmlns="http://www.w3.org/2000/svg"
   xmlns:sodipodi="http://sodipodi.sourceforge.net/DTD/sodipodi-0.dtd"
   xmlns:inkscape="http://www.inkscape.org/namespaces/inkscape"
   viewBox="0 0 512 512"
   id="svg2"
   version="1.1"
   inkscape:version="0.92.1 r15371"
   width="100%"
   height="100%"
   sodipodi:docname="mechanic.svg">
  <metadata
     id="metadata10">
    <rdf:RDF>
      <cc:Work
         rdf:about="">
        <dc:format>image/svg+xml</dc:format>
        <dc:type
           rdf:resource="http://purl.org/dc/dcmitype/StillImage" />
      </cc:Work>
    </rdf:RDF>
  </metadata>
  <defs
     id="defs8" />
  <sodipodi:namedview
     pagecolor="#ffffff"
     bordercolor="#666666"
     borderopacity="1"
     objecttolerance="10"
     gridtolerance="10"
     guidetolerance="10"
     inkscape:pageopacity="0"
     inkscape:pageshadow="2"
     inkscape:window-width="1920"
     inkscape:window-height="1017"
     id="namedview6"
     showgrid="false"
     fit-margin-top="0"
     fit-margin-left="0"
     fit-margin-right="0"
     fit-margin-bottom="0"
     inkscape:zoom="0.23046875"
     inkscape:cx="-811.38935"
     inkscape:cy="367.71852"
     inkscape:window-x="-8"
     inkscape:window-y="-8"
     inkscape:window-maximized="1"
     inkscape:current-layer="svg2" />
  <path
     d="m 0,231.86567 v 49.33313 q 0,2.66653 1.8666647,5.20005 1.8666647,2.53353 4.2667289,2.79999 l 41.3330904,6.39986 q 2.933464,9.33332 8.533458,20.26684 -9.066858,12.80018 -24.000175,30.66648 -1.866665,2.93346 -1.866665,5.33353 0,3.19993 1.866665,5.33353 5.86646,8.00004 21.866577,23.73323 16.000117,15.73317 21.066711,15.73317 2.933464,0 5.599994,-1.86666 l 30.666501,-24.00017 q 9.06686,4.80013 20.53331,8.53346 2.93347,28.79982 6.1334,41.0666 1.86666,6.39985 8.00005,6.39985 h 49.60009 q 2.93346,0 5.33352,-2.00013 2.40007,-2.00013 2.66653,-4.66665 l 6.1334,-40.80014 q 9.06686,-2.66653 19.99991,-8.26652 l 31.46683,23.73323 q 2.13314,1.86666 5.33353,1.86666 2.93347,0 5.6,-2.13313 38.40009,-35.46661 38.40009,-42.6668 0,-2.40006 -1.86666,-5.06659 -3.19993,-4.26672 -11.19999,-14.39991 -8.00006,-10.13318 -11.99986,-16.00011 6.1334,-12.80017 9.06686,-21.86657 l 40.53322,-6.13339 q 2.66653,-0.5334 4.5332,-2.8 1.86666,-2.26658 1.86666,-5.20005 v -49.33313 q 0,-2.66653 -1.86666,-5.20005 -1.86667,-2.53353 -4.26673,-2.79999 l -41.33309,-6.39986 q -2.93346,-9.33333 -8.53346,-20.26684 9.06686,-12.80018 24.00018,-30.66648 1.86666,-2.66653 1.86666,-5.33353 0,-3.19993 -1.86666,-5.06659 -6.1334,-8.00005 -22.00005,-23.8667 -15.86665,-15.86664 -20.93324,-15.86664 -2.93346,0 -5.6,1.86666 l -30.6665,24.00017 q -9.86672,-5.0666 -20.53331,-8.26653 -2.93346,-28.79981 -6.13339,-41.333066 -1.86667,-6.399857 -8.00006,-6.399857 h -49.60008 q -2.93347,0 -5.33353,2.000129 -2.40006,2.000129 -2.66653,4.666668 l -6.13339,40.800126 q -9.06686,2.66653 -19.99992,8.26653 L 80.26705,117.46625 q -1.866665,-1.86667 -5.333528,-1.86667 -2.933464,0 -5.599994,2.13313 -38.400094,35.46661 -38.400094,42.6668 0,2.40007 1.866665,5.0666 2.666531,3.73332 10.933522,14.13344 8.266991,10.40011 12.533254,16.26657 -6.133394,11.73338 -9.333324,21.86657 l -40.5332243,6.39986 q -2.6665306,0.26647 -4.5331953,2.53352 -1.86666473382,2.26707 -1.86666473382,5.20006 z m 102.40009,24.26663 q 0,-28.26643 19.99992,-48.2668 19.99991,-20.00037 48.26681,-19.9999 28.26691,4.7e-4 48.26682,19.9999 19.99991,19.99944 19.99991,48.2668 0,28.26736 -19.99991,48.26679 -19.99991,19.99944 -48.26682,19.99991 -28.2669,4.6e-4 -48.26681,-19.99991 -19.99992,-20.00036 -19.99992,-48.26679 z M 307.19981,100.93274 v 37.33327 q 0,4.26673 39.73336,8.26653 3.46686,7.73311 8.00006,13.86651 -13.60005,30.13308 -13.60005,36.79987 0,1.0668 1.0668,1.86667 1.0668,0.5334 9.33332,5.33353 8.26653,4.80011 15.73318,9.06684 7.46666,4.26673 8.00006,4.26673 2.13313,0 12.26679,-12.39978 10.13366,-12.39978 13.86652,-17.99977 5.33353,0.53339 8.00006,0.53339 2.66653,0 8.00006,-0.53339 13.60005,18.93311 24.5331,29.86662 l 1.6002,0.5334 q 1.0668,0 33.06657,-18.66664 1.0668,-0.79987 1.0668,-1.86666 0,-6.6668 -13.60006,-36.79988 4.5332,-6.13339 8.00006,-13.86651 Q 512,142.53368 512,138.26695 v -37.33328 q 0,-4.266729 -39.73336,-8.266517 -3.19993,-7.200186 -8.00006,-13.866512 13.60006,-30.133085 13.60006,-36.799882 0,-1.066789 -1.0668,-1.866659 -32.53317,-18.9331 -33.06657,-18.9331 -2.13313,0 -12.26679,12.533244 -10.13365,12.533243 -13.86651,18.13324 -5.33353,-0.533399 -8.00006,-0.533399 -2.66653,0 -8.00006,0.533399 -3.73333,-5.599997 -13.86652,-18.13324 Q 377.60014,21.201 375.46654,21.201 q -0.5334,0 -33.06656,18.9331 -1.0668,0.79987 -1.0668,1.866659 0,6.666797 13.60005,36.799882 -4.80013,6.666786 -8.00006,13.866512 -39.73336,3.999788 -39.73336,8.266517 z m 0,273.06584 v 37.33328 q 0,4.26673 39.73336,8.26652 3.46686,7.73312 8.00006,13.86651 -13.60005,30.13308 -13.60005,36.79987 0,1.0668 1.0668,1.86667 1.0668,0.5334 9.33332,5.33353 8.26653,4.80012 15.73318,9.06684 7.46666,4.26673 8.00006,4.26673 2.13313,0 12.26679,-12.39977 10.13366,-12.39979 13.86652,-17.99977 5.33353,0.53339 8.00006,0.53339 2.66653,0 8.00006,-0.53339 13.60005,18.9331 24.5331,29.86661 l 1.6002,0.5334 q 1.0668,0 33.06657,-18.66664 1.0668,-0.79986 1.0668,-1.86666 0,-6.66679 -13.60006,-36.79988 4.5332,-6.13339 8.00006,-13.86651 Q 512,415.59952 512,411.33279 v -37.33328 q 0,-4.26672 -39.73336,-8.26652 -3.19993,-7.20018 -8.00006,-13.86651 13.60006,-30.13308 13.60006,-36.79987 0,-1.0668 -1.0668,-1.86667 -32.53317,-18.9331 -33.06657,-18.9331 -2.13313,0 -12.26679,12.53324 -10.13365,12.53326 -13.86651,18.13324 -5.33353,-0.53339 -8.00006,-0.53339 -2.66653,0 -8.00006,0.53339 -3.73333,-5.59998 -13.86652,-18.13324 -10.13319,-12.53324 -12.26679,-12.53324 -0.5334,0 -33.06656,18.9331 -1.0668,0.79987 -1.0668,1.86667 0,6.66679 13.60005,36.79987 -4.80013,6.66679 -8.00006,13.86651 -39.73336,3.9998 -39.73336,8.26652 z m 68.26627,-254.3992 q 0,-14.13345 10.00019,-24.133168 10.00018,-9.999715 24.13317,-10.000185 14.13299,-4.6e-4 24.13317,10.000185 10.00019,10.000658 10.00019,24.133168 0,13.86651 -10.13318,24.00016 -10.13319,10.13365 -24.00018,10.13318 -13.86699,-4.7e-4 -24.00017,-10.13318 -10.13319,-10.13272 -10.13319,-24.00016 z m 0,273.06584 q 0,-14.13344 10.00019,-24.13317 10.00018,-9.99971 24.13317,-10.00018 14.13299,-4.6e-4 24.13317,10.00018 10.00019,10.00066 10.00019,24.13317 0,13.86651 -10.13318,24.00016 -10.13319,10.13365 -24.00018,10.13318 -13.86699,-4.6e-4 -24.00017,-10.13318 -10.13319,-10.13272 -10.13319,-24.00016 z"
     id="path4"
     inkscape:connector-curvature="0"
     style="stroke-width:0.2333331" />
</svg>
