<?xml version="1.0" encoding="UTF-8" standalone="no"?>
<svg
   xmlns:dc="http://purl.org/dc/elements/1.1/"
   xmlns:cc="http://creativecommons.org/ns#"
   xmlns:rdf="http://www.w3.org/1999/02/22-rdf-syntax-ns#"
   xmlns:svg="http://www.w3.org/2000/svg"
   xmlns="http://www.w3.org/2000/svg"
   xmlns:sodipodi="http://sodipodi.sourceforge.net/DTD/sodipodi-0.dtd"
   xmlns:inkscape="http://www.inkscape.org/namespaces/inkscape"
   viewBox="0 0 512 512"
   id="svg2"
   version="1.1"
   inkscape:version="0.92.1 r15371"
   width="100%"
   height="100%"
   sodipodi:docname="share.svg">
  <metadata
     id="metadata10">
    <rdf:RDF>
      <cc:Work
         rdf:about="">
        <dc:format>image/svg+xml</dc:format>
        <dc:type
           rdf:resource="http://purl.org/dc/dcmitype/StillImage" />
      </cc:Work>
    </rdf:RDF>
  </metadata>
  <defs
     id="defs8" />
  <sodipodi:namedview
     pagecolor="#ffffff"
     bordercolor="#666666"
     borderopacity="1"
     objecttolerance="10"
     gridtolerance="10"
     guidetolerance="10"
     inkscape:pageopacity="0"
     inkscape:pageshadow="2"
     inkscape:window-width="1920"
     inkscape:window-height="1017"
     id="namedview6"
     showgrid="false"
     fit-margin-top="0"
     fit-margin-left="0"
     fit-margin-right="0"
     fit-margin-bottom="0"
     inkscape:zoom="0.23046875"
     inkscape:cx="-149.69443"
     inkscape:cy="367.71852"
     inkscape:window-x="-8"
     inkscape:window-y="-8"
     inkscape:window-maximized="1"
     inkscape:current-layer="svg2" />
  <path
     d="m 432,160 c -22.58,0 -42.96,-9.369 -57.506,-24.415 L 158.992,243.336 c 0.657,4.126 1.008,8.353 1.008,12.664 0,4.311 -0.351,8.538 -1.008,12.663 L 374.494,376.414 C 389.04,361.369 409.42,352 432,352 c 44.183,0 80,35.817 80,80 0,44.183 -35.817,80 -80,80 -44.183,0 -80,-35.817 -80,-80 0,-4.311 0.352,-8.538 1.008,-12.663 L 137.506,311.585 C 122.96,326.63 102.58,336 80,336 35.817,336 0,300.182 0,256 c 0,-44.184 35.817,-80 80,-80 22.58,0 42.96,9.369 57.506,24.414 L 353.008,92.663 C 352.352,88.538 352,84.311 352,80 352,35.816 387.817,0 432,0 c 44.183,0 80,35.816 80,80 0,44.182 -35.817,80 -80,80 z"
     id="path4"
     inkscape:connector-curvature="0"
     style="stroke-width:0.5" />
</svg>
