<?xml version="1.0" encoding="UTF-8" standalone="no"?>
<svg
   xmlns:dc="http://purl.org/dc/elements/1.1/"
   xmlns:cc="http://creativecommons.org/ns#"
   xmlns:rdf="http://www.w3.org/1999/02/22-rdf-syntax-ns#"
   xmlns:svg="http://www.w3.org/2000/svg"
   xmlns="http://www.w3.org/2000/svg"
   xmlns:sodipodi="http://sodipodi.sourceforge.net/DTD/sodipodi-0.dtd"
   xmlns:inkscape="http://www.inkscape.org/namespaces/inkscape"
   viewBox="0 0 512 512"
   id="svg2"
   version="1.1"
   inkscape:version="0.48.5 r10040"
   width="100%"
   height="100%"
   sodipodi:docname="tel.svg">
  <metadata
     id="metadata10">
    <rdf:RDF>
      <cc:Work
         rdf:about="">
        <dc:format>image/svg+xml</dc:format>
        <dc:type
           rdf:resource="http://purl.org/dc/dcmitype/StillImage" />
      </cc:Work>
    </rdf:RDF>
  </metadata>
  <defs
     id="defs8" />
  <sodipodi:namedview
     pagecolor="#ffffff"
     bordercolor="#666666"
     borderopacity="1"
     objecttolerance="10"
     gridtolerance="10"
     guidetolerance="10"
     inkscape:pageopacity="0"
     inkscape:pageshadow="2"
     inkscape:window-width="1366"
     inkscape:window-height="706"
     id="namedview6"
     showgrid="false"
     fit-margin-top="0"
     fit-margin-left="0"
     fit-margin-right="0"
     fit-margin-bottom="0"
     inkscape:zoom="0.23046875"
     inkscape:cx="512.00049"
     inkscape:cy="367.71852"
     inkscape:window-x="-8"
     inkscape:window-y="-8"
     inkscape:window-maximized="1"
     inkscape:current-layer="svg2" />
  <path
     d="m 388.72738,511.99934 q 33.45429,0 67.63658,-18.54553 36.72711,-20.36362 44.36348,-38.54515 4.00019,-9.09109 7.63637,-24.90917 3.63618,-15.81808 3.63618,-25.63653 0,-5.0909 -1.09072,-7.63636 -2.1821,-6.54563 -27.63666,-19.27289 -6.909,-4.00018 -19.63628,-10.90917 -12.72728,-6.909 -23.0911,-12.72726 -10.36383,-5.81828 -19.45429,-11.27254 -1.45472,-1.09073 -9.09109,-6.36363 -7.63637,-5.27291 -12.90928,-7.81836 -5.27291,-2.54546 -10.36382,-2.54546 -7.27301,0 -18.18156,10.36382 -10.90855,10.36381 -20.00028,22.54571 -9.09174,12.1819 -19.27292,22.5457 -10.18119,10.36382 -16.72747,10.36382 -3.27282,0 -8.18173,-1.81809 -4.90891,-1.8181 -7.45437,-3.09081 -2.54545,-1.27273 -8.72709,-5.09092 -6.18164,-3.81817 -6.90901,-4.18153 -49.81839,-27.63662 -85.45477,-63.27296 -35.63638,-35.63634 -63.27303,-85.45467 -0.36337,-0.72736 -4.18155,-6.90899 -3.81818,-6.18163 -5.09091,-8.72709 -1.27273,-2.54545 -3.09082,-7.45436 -1.81809,-4.9089 -1.81809,-8.18172 0,-6.54563 10.36382,-16.72744 10.36382,-10.18181 22.54574,-19.27289 12.18192,-9.09109 22.54574,-20.00027 10.36382,-10.90916 10.36382,-18.18153 0,-5.0909 -2.54545,-10.3638 Q 181.09136,107.63635 175.81845,100 170.54554,92.363642 169.45481,90.908916 164.00053,81.817831 158.18226,71.454656 152.36398,61.091482 145.45498,48.363582 138.54597,35.635682 134.54579,28.727323 121.81851,3.2727959 115.27287,1.0907065 112.72742,-2e-5 107.6365,-2e-5 97.818044,-2e-5 81.999944,3.6361592 66.181845,7.2723385 57.090751,11.272517 38.909196,18.908876 18.545548,55.635941 -7.0633253e-6,89.817552 -7.0633253e-6,123.27243 q 0,9.81845 1.2727279633253,19.0909 1.2727279,9.27245 4.5455479,20.90898 3.27282,11.63655 5.2729122,17.27281 2.000092,5.63628 7.454367,20.18163 5.454276,14.54535 6.54564,17.81817 12.72728,35.63633 30.182107,63.63632 28.727377,46.54551 78.363765,96.18184 49.63639,49.63632 96.18196,78.36367 28.00002,17.45481 63.6364,30.18206 3.27282,1.09073 17.81819,6.54563 14.54537,5.45492 20.18165,7.45436 5.63628,1.99946 17.27283,5.27291 11.63655,3.27345 20.90901,4.54554 9.27246,1.27209 19.09092,1.27273 z"
     id="path4"
     inkscape:connector-curvature="0" />
</svg>
