<?xml version="1.0" encoding="UTF-8" standalone="no"?>
<svg
   xmlns:dc="http://purl.org/dc/elements/1.1/"
   xmlns:cc="http://creativecommons.org/ns#"
   xmlns:rdf="http://www.w3.org/1999/02/22-rdf-syntax-ns#"
   xmlns:svg="http://www.w3.org/2000/svg"
   xmlns="http://www.w3.org/2000/svg"
   xmlns:sodipodi="http://sodipodi.sourceforge.net/DTD/sodipodi-0.dtd"
   xmlns:inkscape="http://www.inkscape.org/namespaces/inkscape"
   viewBox="0 0 512 512"
   id="svg2"
   version="1.1"
   inkscape:version="0.92.1 r15371"
   width="100%"
   height="100%"
   sodipodi:docname="tool_1.svg">
  <metadata
     id="metadata10">
    <rdf:RDF>
      <cc:Work
         rdf:about="">
        <dc:format>image/svg+xml</dc:format>
        <dc:type
           rdf:resource="http://purl.org/dc/dcmitype/StillImage" />
      </cc:Work>
    </rdf:RDF>
  </metadata>
  <defs
     id="defs8" />
  <sodipodi:namedview
     pagecolor="#ffffff"
     bordercolor="#666666"
     borderopacity="1"
     objecttolerance="10"
     gridtolerance="10"
     guidetolerance="10"
     inkscape:pageopacity="0"
     inkscape:pageshadow="2"
     inkscape:window-width="1920"
     inkscape:window-height="1017"
     id="namedview6"
     showgrid="false"
     fit-margin-top="0"
     fit-margin-left="0"
     fit-margin-right="0"
     fit-margin-bottom="0"
     inkscape:zoom="0.23046875"
     inkscape:cx="-1473.0843"
     inkscape:cy="367.71852"
     inkscape:window-x="-8"
     inkscape:window-y="-8"
     inkscape:window-maximized="1"
     inkscape:current-layer="svg2" />
  <path
     d="m 408.93799,501.46698 -197.38,-230.27599 c -20.149,10.724 -43.141,16.809 -67.558,16.809 C 64.471,287.99999 0,223.52899 0,143.99999 0,129.453 2.166,115.414 6.177,102.177 l 83.195,83.19499 c 12.445,12.445 32.81,12.445 45.255,0 L 185.37199,134.627 c 12.445,-12.445 12.445,-32.81 0,-45.254998 L 102.177,6.1770019 c 13.237,-4.011 27.276,-6.1769999562501 41.82299,-6.1769999562501 79.529,0 144,64.4710000562501 144,143.9999880562501 0,24.417 -6.085,47.409 -16.81,67.558 l 230.27599,197.38 c 13.362,11.454 14.113,31.00799 1.669,43.45199 l -50.746,50.746 c -12.444,12.444 -31.99699,11.693 -43.45099,-1.669 z"
     id="path4"
     inkscape:connector-curvature="0"
     style="stroke-width:0.13636345" />
</svg>
