<?xml version="1.0" encoding="UTF-8" standalone="no"?>
<svg
   xmlns:dc="http://purl.org/dc/elements/1.1/"
   xmlns:cc="http://creativecommons.org/ns#"
   xmlns:rdf="http://www.w3.org/1999/02/22-rdf-syntax-ns#"
   xmlns:svg="http://www.w3.org/2000/svg"
   xmlns="http://www.w3.org/2000/svg"
   xmlns:sodipodi="http://sodipodi.sourceforge.net/DTD/sodipodi-0.dtd"
   xmlns:inkscape="http://www.inkscape.org/namespaces/inkscape"
   viewBox="0 0 512 512"
   id="svg2"
   version="1.1"
   inkscape:version="0.92.1 r15371"
   width="100%"
   height="100%"
   sodipodi:docname="tool_2.svg">
  <metadata
     id="metadata10">
    <rdf:RDF>
      <cc:Work
         rdf:about="">
        <dc:format>image/svg+xml</dc:format>
        <dc:type
           rdf:resource="http://purl.org/dc/dcmitype/StillImage" />
      </cc:Work>
    </rdf:RDF>
  </metadata>
  <defs
     id="defs8" />
  <sodipodi:namedview
     pagecolor="#ffffff"
     bordercolor="#666666"
     borderopacity="1"
     objecttolerance="10"
     gridtolerance="10"
     guidetolerance="10"
     inkscape:pageopacity="0"
     inkscape:pageshadow="2"
     inkscape:window-width="1920"
     inkscape:window-height="1017"
     id="namedview6"
     showgrid="false"
     fit-margin-top="0"
     fit-margin-left="0"
     fit-margin-right="0"
     fit-margin-bottom="0"
     inkscape:zoom="0.23046875"
     inkscape:cx="-1473.0843"
     inkscape:cy="367.71852"
     inkscape:window-x="-8"
     inkscape:window-y="-8"
     inkscape:window-maximized="1"
     inkscape:current-layer="svg2" />
  <path
     d="m 432.50666,176.04038 c -24.01029,-18.63746 -43.90748,-5.80965 -70.46234,24.93563 -3.0075,3.44482 -7.01817,-0.59146 -9.28007,-2.57068 -2.2624,-2.00534 -37.32613,-33.52182 -39.02318,-34.98691 -1.72216,-1.5168 -3.77871,-4.34456 -1.05388,-7.5062 2.72482,-3.16164 12.69928,-16.06677 19.10038,-24.42149 C 378.26573,70.694051 204.64165,29.460181 231.32504,28.817511 c 13.54731,-0.35999 68.0202,-0.97706 76.14346,-0.12853 32.98207,3.49603 74.39569,34.31863 95.24383,48.66325 27.24925,18.74038 37.45467,29.614069 39.12561,31.130879 7.71205,6.7611 1.23413,22.28763 15.21825,34.55009 14.78143,12.95635 23.98468,3.16214 32.54476,10.66834 4.26723,3.75309 16.11796,12.62195 19.53717,15.62996 3.39311,2.98189 4.01017,8.04644 0.53975,12.10782 0,0 -32.46792,35.88664 -35.21835,39.04878 -2.72483,3.16215 -10.05128,5.83526 -14.60169,1.82509 -4.54991,-3.98456 -16.22091,-14.24169 -18.20064,-15.98945 -2.00533,-1.72216 1.28534,-22.18521 -9.15153,-30.28286 z m -146.76044,13.26463 c 3.08482,-3.57336 6.88963,-3.65017 10.20541,-0.72 l 36.88932,32.15916 c 2.87896,2.57068 3.26456,7.30084 0.66827,10.28273 L 120.29661,473.64825 c -4.96162,5.75843 -13.59902,6.34938 -19.33135,1.36266 L 76.004025,454.13716 c -5.68111,-4.98723 -6.272569,-13.72756 -1.310948,-19.45988 L 285.74622,189.30551 Z M 1.4546959,86.040841 c 1.9024065,-12.69928 8.4832565,-10.02567 11.9024671,-4.62723 3.367495,5.37283 18.53453,28.303119 24.755886,38.663179 6.169641,10.33395 21.336676,30.61675 49.717126,10.59102 29.511655,-20.87375 19.228915,-35.449829 14.113155,-45.244039 -5.166974,-9.84592 -21.028395,-37.40345 -23.34201,-40.87387 -2.262403,-3.47043 0.411209,-13.54731 9.537136,-9.33179 9.177141,4.24163 64.858554,26.37512 72.596214,58.09746 7.8918,32.313299 -6.63257,61.156669 21.85081,89.819789 l 34.49838,35.98958 -34.65302,40.30852 -42.51921,-40.38534 C 129.75743,208.86831 108.13807,198.97118 88.549163,203.41816 46.569695,212.92969 23.690609,197.14559 9.8606314,171.10487 -2.529864,147.78896 -0.47331699,98.740121 1.4546959,86.040841 Z M 442.63526,437.24746 c 5.34722,5.39844 5.34722,14.13876 0,19.51159 l -24.44711,23.90736 c -5.34722,5.37283 -13.83048,3.11043 -19.1772,-2.2624 L 272.8677,354.36851 311.53088,310.3325 442.63576,437.24696 Z"
     id="path4"
     inkscape:connector-curvature="0"
     style="stroke-width:0.13693254" />
</svg>
